<svg width="205" height="262" viewBox="0 0 205 262" fill="none" xmlns="http://www.w3.org/2000/svg">
<mask id="mask0_5_576" style="mask-type:luminance" maskUnits="userSpaceOnUse" x="0" y="28" width="205" height="206">
<path d="M205 28.325H0V233.325H205V28.325Z" fill="white"/>
</mask>
<g mask="url(#mask0_5_576)">
<g opacity="0.3">
<path d="M102.981 119.091C122.335 119.091 138.025 131.307 138.025 146.377C138.025 161.447 122.335 173.663 102.981 173.663C83.6261 173.663 67.936 161.447 67.936 146.377C67.936 131.307 83.6261 119.091 102.981 119.091Z" fill="#AFAFAF"/>
</g>
<path d="M113.993 146.014L110.872 146.92" stroke="#F49000" stroke-width="10.25" stroke-linecap="round"/>
<path d="M99.3421 158.002L99.2495 150.001" stroke="#F49000" stroke-width="8.54167" stroke-linecap="round"/>
<path d="M77.4563 111.811C73.8302 112.61 69.857 112.45 63.9711 111.751C60.1262 111.267 60.1951 114.254 60.4464 116.88C60.7724 120.437 61.5316 123.785 63.641 126.615C66.2472 130.111 68.509 131.35 71.449 132.613C74.683 134.003 78.3354 134.217 78.199 134.047C78.1117 133.938 77.5419 113.661 77.4563 111.811Z" fill="#58CC02"/>
<path d="M128.245 133.066C129.686 133.372 133.571 132.072 135.922 129.371C138.267 126.636 140.299 121.373 140.505 114.337C140.69 107.986 139.285 106.71 137.099 108.331C135.402 109.477 132.806 110.824 129.94 111.532L129.538 116.643" fill="#58CC02"/>
<mask id="mask1_5_576" style="mask-type:alpha" maskUnits="userSpaceOnUse" x="74" y="86" width="64" height="76">
<mask id="mask2_5_576" style="mask-type:luminance" maskUnits="userSpaceOnUse" x="-8" y="19" width="223" height="224">
<path d="M10.6968 19.7979L214.904 37.8123L196.889 242.019L-7.31764 224.005L10.6968 19.7979Z" fill="white"/>
</mask>
<g mask="url(#mask2_5_576)">
<path d="M107.044 91.7172C111.021 92.0712 111.833 91.1316 115.931 90.6209C118.664 90.244 122.125 90.0385 125.484 91.1689C128.493 92.1859 131.784 94.5785 133.719 97.2075C134.995 98.941 136.018 101.048 136.59 102.922C137.35 105.415 137.172 107.881 136.938 109.407L134.838 130.303C133.624 155.656 111.883 161.512 102.037 161.294C92.2146 160.569 73.1182 152.271 74.3331 126.918L76.734 101.142C77.9252 92.4027 95.1414 90.4977 107.044 91.7172ZM103.649 89.7967C106.381 91.1293 108.899 92.3091 112.745 92.8275C122.556 94.15 138.272 101.569 137.25 109.149L134.917 130.238C133.702 155.592 111.883 161.512 102.037 161.294C92.2146 160.569 71.7225 152.026 74.3264 126.989L76.8119 101.077C77.0167 99.2185 78.3343 96.2617 80.2994 93.6765C81.5996 91.9659 83.8028 90.197 85.8662 89.059C88.1112 87.8209 91.0674 86.6517 94.2086 86.9679C98.0457 87.3048 101.071 88.5413 103.649 89.7967Z" fill="#58CC02"/>
<path d="M103.649 89.7967C106.381 91.1293 108.899 92.3091 112.745 92.8275C122.556 94.15 138.272 101.569 137.25 109.149L134.917 130.238C133.702 155.592 111.883 161.512 102.037 161.294C92.2146 160.569 71.7225 152.026 74.3264 126.989L76.8119 101.077C77.0167 99.2185 78.3343 96.2617 80.2994 93.6765C81.5996 91.9659 83.8028 90.197 85.8662 89.059C88.1112 87.8209 91.0674 86.6517 94.2086 86.9679C98.0457 87.3048 101.071 88.5413 103.649 89.7967Z" fill="#58CC02"/>
</g>
</mask>
<g mask="url(#mask1_5_576)">
<path d="M172.636 41.1146V196.003H36.9189V41.1146H172.636Z" fill="#58CC02"/>
<path d="M122.298 94.4039C120.957 94.4039 117.49 107.822 108.617 107.822C99.6435 107.822 94.7982 95.4987 91.9893 95.7009C89.4918 95.8663 90.0724 99.102 90.2902 100.466C89.3623 99.7159 88.1015 98.7403 87.1238 98.6437C86.1462 98.547 85.6344 100.551 85.7309 101.625C85.7741 102.067 85.9696 102.375 86.4577 103.355C85.6068 104.227 81.743 105.984 81.6291 112.93C81.4777 120.566 83.6374 125.185 86.6914 127.856C89.4909 130.304 93.0417 131.117 96.2532 131.117C101.258 131.117 104.447 127.825 105.126 126.047L112.521 125.914C113.162 127.716 115.955 131.188 120.977 131.188C125.591 131.188 128.338 127.795 129.869 123.414C131.094 119.906 131.54 115.765 131.54 112.227C131.54 105.863 128.262 102.585 127.411 101.703C127.498 101.513 127.71 101.445 127.71 99.9588C127.71 98.1009 126.737 96.7799 126.159 96.7799C125.582 96.7799 124.855 97.7681 124.017 98.7924C124.017 96.2674 123.64 94.4039 122.298 94.4039Z" fill="#89E219"/>
</g>
<path d="M106.064 140.88C105.994 140.125 100.576 139.608 98.5122 139.798C96.591 139.976 99.4803 143.022 102.552 142.738C105.469 142.468 106.11 141.379 106.064 140.88ZM111.82 140.347C111.75 139.592 116.981 138.09 119.045 137.899C120.966 137.722 118.685 141.246 115.613 141.53C112.695 141.8 111.866 140.847 111.82 140.347ZM106.722 143.863C105.737 143.784 105.308 144.086 105.359 144.636C105.443 145.552 107.824 145.815 109.472 145.662C111.121 145.51 113.245 144.553 113.186 143.912C113.138 143.399 112.675 143.273 112.379 143.34C110.81 143.697 107.602 143.933 106.722 143.863Z" fill="#89E219"/>
<path d="M87.9058 116.428C90.3316 113.949 93.4235 112.678 96.9383 113.977C100.231 115.177 100.817 118.096 101.831 121.446" stroke="#4EB800" stroke-width="1.38185" stroke-linecap="round" stroke-linejoin="round"/>
<path d="M127.842 116.954C125.503 113.914 122.524 112.5 119.711 113.7C116.794 114.945 115.418 117.558 114.581 121.671" stroke="#4EB800" stroke-width="1.38185" stroke-linecap="round" stroke-linejoin="round"/>
<mask id="mask3_5_576" style="mask-type:alpha" maskUnits="userSpaceOnUse" x="84" y="123" width="30" height="18">
<mask id="mask4_5_576" style="mask-type:luminance" maskUnits="userSpaceOnUse" x="-14" y="11" width="234" height="235">
<path d="M5.27539 11.7068L219.693 30.6219L200.778 245.04L-13.6397 226.124L5.27539 11.7068Z" fill="white"/>
</mask>
<g mask="url(#mask4_5_576)">
<path d="M91.3454 130.74C91.7612 125.967 90.4841 124.483 87.9529 123.937C84.2576 123.352 84.6554 127.104 84.5693 129.587C84.5154 131.141 84.6551 131.756 85.0092 132.7C85.6723 134.466 86.9005 135.447 88.3196 135.438C89.3824 135.457 90.0398 135.039 90.6373 134.034C91.1207 133.221 91.1985 132.425 91.3454 130.74Z" fill="#4B4B4B"/>
<path d="M105.296 135.813C105.321 130.699 106.714 129.643 109.455 129.457C113.384 129.121 113.417 132.573 113.403 134.638C113.393 136.239 113.159 137.651 112.717 138.591C111.819 140.499 110.502 140.825 109.077 140.947C108.008 141.023 106.696 140.369 106.155 139.516C105.664 138.741 105.288 137.482 105.296 135.813Z" fill="#4B4B4B"/>
</g>
</mask>
<g mask="url(#mask3_5_576)">
<path d="M141.38 64.9124V156.394H6.05127V64.9124H141.38Z" fill="#4B4B4B"/>
</g>
<path d="M108.763 122.706C111.283 122.706 113.322 121.936 113.322 127.94C113.322 133.944 111.283 135.594 108.763 135.594C106.243 135.594 104.197 133.944 104.197 127.94C104.197 121.936 106.243 122.706 108.763 122.706Z" fill="#F49000"/>
<path d="M108.961 125.574C110.102 125.574 111.851 124.172 111.839 128.213C111.831 131.088 110.609 133.47 108.932 133.474C107.044 133.479 105.875 131.145 105.925 128.271C106.005 124.172 107.82 125.574 108.961 125.574Z" fill="#B06800"/>
<path d="M114.799 124.544C114.573 122.729 111.929 120.262 109.01 120.155C105.436 120.001 103.346 123.216 103.346 124.731C103.346 125.644 108.707 127.981 110.215 127.974C111.576 127.97 114.893 125.083 114.799 124.544Z" fill="#FFC200"/>
<path d="M107.445 123.225C107.833 122.958 108.903 122.576 109.878 122.948" stroke="#FFDE00" stroke-width="2.66784" stroke-linecap="round"/>
</g>
</svg>
