<svg width="25" height="25" viewBox="0 0 25 25" fill="none" xmlns="http://www.w3.org/2000/svg">
<g clip-path="url(#clip0_1_2462)">
<path d="M14.5 22.1429H10.5003C10.1751 22.1429 9.91138 22.4602 9.91138 22.8515V24.2914C9.91138 24.6827 10.1751 25 10.5003 25H14.5C14.8253 25 15.089 24.6827 15.089 24.2914V22.8515C15.089 22.4602 14.8253 22.1429 14.5 22.1429Z" fill="#1899D6"/>
<path d="M1.17825 0.714478H23.8214C24.1339 0.714478 24.4336 0.863626 24.6547 1.1294C24.8757 1.39517 25 1.7557 25 2.13166V22.8684C25 23.6511 24.4724 24.2856 23.8218 24.2856H1.17857C0.866081 24.2856 0.566355 24.1364 0.34533 23.8706C0.124305 23.6049 0 23.2443 0 22.8684V2.13166C0.000358487 1.34906 0.527772 0.714868 1.17825 0.714868V0.714478Z" fill="#1899D6"/>
<path d="M14.0561 20.5355H10.9441C10.6188 20.5355 10.3551 20.8528 10.3551 21.2441V22.1484C10.3551 22.5398 10.6188 22.857 10.9441 22.857H14.0561C14.3814 22.857 14.645 22.5398 14.645 22.1484V21.2441C14.645 20.8528 14.3814 20.5355 14.0561 20.5355Z" fill="#D2E4E8"/>
<path d="M1.62726 17.3215H23.5208V21.2555C23.5208 21.4436 23.4588 21.624 23.3483 21.757C23.2377 21.8899 23.0878 21.9646 22.9315 21.9645H2.21622C2.05996 21.9645 1.91011 21.8898 1.79965 21.7568C1.68919 21.6239 1.62726 21.4435 1.62726 21.2555V17.3215Z" fill="#D2E4E8"/>
<path d="M23.5206 19.4645H14.6355C13.4969 19.4645 12.5738 20.575 12.5738 21.9449C12.5738 20.575 11.6508 19.4645 10.5122 19.4645H1.62677V2.31604C1.62677 1.92463 1.89041 1.60706 2.21573 1.60706H10.5115C11.0583 1.60706 11.5827 1.86839 11.9693 2.33357C12.356 2.79875 12.5732 3.42966 12.5732 4.08752C12.5732 3.4296 12.7905 2.79862 13.1772 2.33343C13.5639 1.86824 14.0884 1.60706 14.6352 1.60706H22.9316C23.257 1.60706 23.5209 1.92463 23.5209 2.31604L23.5206 19.4645Z" fill="white"/>
<path d="M10.6527 3.39294H3.25237C3.00832 3.39294 2.81049 3.63097 2.81049 3.92458V4.46834C2.81049 4.76195 3.00832 4.99998 3.25237 4.99998H10.6527C10.8967 4.99998 11.0946 4.76195 11.0946 4.46834V3.92458C11.0946 3.63097 10.8967 3.39294 10.6527 3.39294Z" fill="#D2E4E8"/>
<path d="M10.6527 10.7145H3.25237C3.00832 10.7145 2.81049 10.9525 2.81049 11.2461V11.7899C2.81049 12.0835 3.00832 12.3215 3.25237 12.3215H10.6527C10.8967 12.3215 11.0946 12.0835 11.0946 11.7899V11.2461C11.0946 10.9525 10.8967 10.7145 10.6527 10.7145Z" fill="#D2E4E8"/>
<path d="M9.02542 7.14294H3.25237C3.00832 7.14294 2.81049 7.38097 2.81049 7.67458V8.21834C2.81049 8.51195 3.00832 8.74998 3.25237 8.74998H9.02542C9.26947 8.74998 9.4673 8.51195 9.4673 8.21834V7.67458C9.4673 7.38097 9.26947 7.14294 9.02542 7.14294Z" fill="#D2E4E8"/>
<path d="M9.02542 14.2855H3.25237C3.00832 14.2855 2.81049 14.5235 2.81049 14.8172V15.3609C2.81049 15.6545 3.00832 15.8926 3.25237 15.8926H9.02542C9.26947 15.8926 9.4673 15.6545 9.4673 15.3609V14.8172C9.4673 14.5235 9.26947 14.2855 9.02542 14.2855Z" fill="#D2E4E8"/>
<path d="M5.17508 0H8.58157C8.82573 0 9.02313 0.238281 9.02313 0.53125V13.3867C9.02339 13.5785 8.93775 13.7555 8.79906 13.8499C8.66037 13.9444 8.49014 13.9415 8.35365 13.8426L7.04066 12.8914C6.89624 12.7866 6.71482 12.7899 6.57313 12.9L5.41469 13.7988C5.27883 13.9044 5.10586 13.9122 4.96383 13.8191C4.8218 13.726 4.73344 13.5469 4.73352 13.3523V0.53125C4.73352 0.237891 4.93157 0 5.17508 0Z" fill="#FF4B4B"/>
<path d="M22.0435 3.39294H14.6432C14.3991 3.39294 14.2013 3.63097 14.2013 3.92458V4.46834C14.2013 4.76195 14.3991 4.99998 14.6432 4.99998H22.0435C22.2875 4.99998 22.4854 4.76195 22.4854 4.46834V3.92458C22.4854 3.63097 22.2875 3.39294 22.0435 3.39294Z" fill="#D2E4E8"/>
<path d="M22.0435 10.7145H14.6432C14.3991 10.7145 14.2013 10.9525 14.2013 11.2461V11.7899C14.2013 12.0835 14.3991 12.3215 14.6432 12.3215H22.0435C22.2875 12.3215 22.4854 12.0835 22.4854 11.7899V11.2461C22.4854 10.9525 22.2875 10.7145 22.0435 10.7145Z" fill="#D2E4E8"/>
<path d="M20.4162 7.14294H14.6432C14.3991 7.14294 14.2013 7.38097 14.2013 7.67458V8.21834C14.2013 8.51195 14.3991 8.74998 14.6432 8.74998H20.4162C20.6603 8.74998 20.8581 8.51195 20.8581 8.21834V7.67458C20.8581 7.38097 20.6603 7.14294 20.4162 7.14294Z" fill="#D2E4E8"/>
<path d="M20.4162 14.2855H14.6432C14.3991 14.2855 14.2013 14.5235 14.2013 14.8172V15.3609C14.2013 15.6545 14.3991 15.8926 14.6432 15.8926H20.4162C20.6603 15.8926 20.8581 15.6545 20.8581 15.3609V14.8172C20.8581 14.5235 20.6603 14.2855 20.4162 14.2855Z" fill="#D2E4E8"/>
</g>
<defs>
<clipPath id="clip0_1_2462">
<rect width="25" height="25" fill="white"/>
</clipPath>
</defs>
</svg>
