<svg width="32" height="26" viewBox="0 0 32 26" fill="none" xmlns="http://www.w3.org/2000/svg">
<path fill-rule="evenodd" clip-rule="evenodd" d="M3.4586 5.07397L7.38286 8.17242C7.66022 8.39141 8.06007 8.35691 8.29582 8.09364L14.1955 1.50531C15.1815 0.404304 16.8732 0.311014 17.9743 1.29694C18.0252 1.34256 18.0744 1.39011 18.1217 1.4395L24.508 8.10743C24.7527 8.36287 25.1539 8.38374 25.4237 8.15506L29.0592 5.07397C29.7853 4.45868 30.8726 4.54844 31.4879 5.27445C31.8484 5.69989 31.9808 6.27352 31.8431 6.81393L27.4681 23.9871C27.2298 24.9227 26.3872 25.5775 25.4217 25.5775H6.79413C5.82864 25.5775 4.98609 24.9227 4.74774 23.9871L0.43044 7.04045C0.170565 6.02037 0.786835 4.98276 1.80692 4.72288C2.38211 4.57635 2.99274 4.70614 3.4586 5.07397Z" fill="#FFC800"/>
</svg>
