<svg width="32" height="32" viewBox="0 0 32 32" fill="none" xmlns="http://www.w3.org/2000/svg">
<path d="M11.9516 17.272L5.27466 23.4431C4.86493 23.8218 4.86493 24.4358 5.27466 24.8145C5.68439 25.1932 6.34869 25.1932 6.75842 24.8145L13.4354 18.6433C13.8451 18.2647 13.8451 17.6507 13.4354 17.272C13.0256 16.8933 12.3613 16.8933 11.9516 17.272Z" fill="#AAC1D4"/>
<path d="M8.3407 19.3111L4.63129 22.7395C3.81183 23.4969 3.81183 24.7248 4.63129 25.4822C5.45075 26.2396 6.77936 26.2396 7.59882 25.4822L11.3082 22.0538C12.1277 21.2964 12.1277 20.0685 11.3082 19.3111C10.4888 18.5537 9.16016 18.5537 8.3407 19.3111Z" fill="#CD7900"/>
<path d="M24.8871 16.3156C27.3708 13.0371 26.5088 8.51848 22.9616 6.22292C19.4144 3.92732 14.5255 4.72408 12.0417 8.00251C9.55795 11.281 10.42 15.7996 13.9671 18.0952C17.5143 20.3908 22.4033 19.594 24.8871 16.3156Z" fill="#DDF4FF"/>
<g opacity="0.56">
<mask id="mask0_1_2419" style="mask-type:alpha" maskUnits="userSpaceOnUse" x="10" y="4" width="17" height="16">
<path d="M24.8871 16.3156C27.3708 13.0371 26.5088 8.51848 22.9616 6.22292C19.4144 3.92732 14.5255 4.72408 12.0417 8.00251C9.55795 11.281 10.42 15.7996 13.9671 18.0952C17.5143 20.3908 22.4033 19.594 24.8871 16.3156Z" fill="#DDF4FF"/>
</mask>
<g mask="url(#mask0_1_2419)">
<path fill-rule="evenodd" clip-rule="evenodd" d="M14.9272 9.81911C14.2102 10.4818 14.2102 11.5563 14.9272 12.219C15.6443 12.8817 16.8068 12.8817 17.5238 12.219L24.5717 5.70503C25.2887 5.04229 25.2887 3.96784 24.5717 3.30514C23.8547 2.64243 22.6921 2.64243 21.9751 3.30514L14.9272 9.81911ZM12.835 18.5483C12.118 19.211 12.118 20.2854 12.835 20.9481C13.552 21.6108 14.7146 21.6108 15.4316 20.9481L22.1085 14.777C22.8256 14.1143 22.8256 13.0399 22.1085 12.3771C21.3915 11.7144 20.229 11.7144 19.512 12.3771L12.835 18.5483Z" fill="white"/>
</g>
</g>
<path d="M24.8854 16.3144C27.3691 13.0359 26.507 8.51729 22.9599 6.22168C19.4127 3.92611 14.5237 4.72287 12.0399 8.00131C9.55616 11.2798 10.4182 15.7984 13.9654 18.094C17.5126 20.3896 22.4016 19.5928 24.8854 16.3144Z" stroke="#C2D1DD" stroke-width="4.36364"/>
</svg>
